<svg width="311" height="69" viewBox="0 0 311 69" fill="none" xmlns="http://www.w3.org/2000/svg">
<rect width="166" height="69" fill="#1323A5"/>
<path d="M22.824 39.616V32.896H36.072V39.616H22.824ZM24.888 52H17.88V19.312H38.472V26.08H22.44L24.888 23.152V52ZM47.4334 39.616V32.896H60.6814V39.616H47.4334ZM49.4974 52H42.4894V19.312H63.0814V26.08H47.0494L49.4974 23.152V52ZM67.0988 52V19.312H78.5228C81.9148 19.312 84.8268 19.968 87.2588 21.28C89.7228 22.56 91.6108 24.432 92.9228 26.896C94.2668 29.328 94.9388 32.256 94.9388 35.68C94.9388 39.136 94.2668 42.08 92.9228 44.512C91.6108 46.944 89.7228 48.8 87.2588 50.08C84.7948 51.36 81.8668 52 78.4748 52H67.0988ZM74.1068 47.872L71.3228 45.232H77.9948C79.9468 45.232 81.6428 44.912 83.0828 44.272C84.5548 43.6 85.6908 42.56 86.4908 41.152C87.3228 39.744 87.7388 37.92 87.7388 35.68C87.7388 33.472 87.3388 31.664 86.5388 30.256C85.7388 28.848 84.6028 27.808 83.1308 27.136C81.6908 26.432 79.9948 26.08 78.0428 26.08H70.9868L74.1068 24.016V47.872ZM110.16 52.816C108.272 52.816 106.496 52.544 104.832 52C103.2 51.424 101.728 50.576 100.416 49.456C99.136 48.304 98.048 46.832 97.152 45.04L102.624 41.632C103.552 43.168 104.688 44.336 106.032 45.136C107.376 45.936 108.88 46.336 110.544 46.336C111.984 46.336 113.072 46.032 113.808 45.424C114.544 44.816 114.912 44.016 114.912 43.024C114.912 42.384 114.736 41.84 114.384 41.392C114.064 40.912 113.472 40.464 112.608 40.048C111.744 39.632 110.496 39.232 108.864 38.848C106.208 38.208 104.096 37.408 102.528 36.448C100.992 35.488 99.904 34.352 99.264 33.04C98.624 31.696 98.304 30.208 98.304 28.576C98.304 26.656 98.768 24.96 99.696 23.488C100.656 21.984 102.016 20.8 103.776 19.936C105.536 19.072 107.632 18.64 110.064 18.64C112.816 18.64 115.136 19.184 117.024 20.272C118.944 21.36 120.48 22.784 121.632 24.544L116.16 28.336C115.328 27.248 114.32 26.464 113.136 25.984C111.984 25.504 110.832 25.264 109.68 25.264C108.304 25.264 107.232 25.536 106.464 26.08C105.728 26.592 105.36 27.328 105.36 28.288C105.36 29.184 105.744 29.936 106.512 30.544C107.28 31.12 108.784 31.664 111.024 32.176C113.712 32.816 115.872 33.6 117.504 34.528C119.136 35.456 120.32 36.592 121.056 37.936C121.792 39.28 122.16 40.896 122.16 42.784C122.16 44.704 121.664 46.416 120.672 47.92C119.712 49.424 118.336 50.624 116.544 51.52C114.752 52.384 112.624 52.816 110.16 52.816Z" fill="white"/>
<path d="M182.771 28.614V26.234H187.463V28.614H182.771ZM183.502 33H181.02V21.423H188.313V23.82H182.635L183.502 22.783V33ZM190.39 28.546H195.83V30.841H190.39V28.546ZM187.857 33L191.971 21.423H194.708L198.618 33H196.102L192.94 23.123H193.756L190.356 33H187.857ZM204.468 33.204C203.266 33.204 202.224 32.949 201.34 32.439C200.467 31.929 199.787 31.2263 199.3 30.331C198.824 29.4243 198.586 28.3873 198.586 27.22C198.586 26.3473 198.727 25.5483 199.011 24.823C199.305 24.0863 199.713 23.4517 200.235 22.919C200.756 22.375 201.374 21.9613 202.088 21.678C202.813 21.3833 203.606 21.236 204.468 21.236C205.828 21.236 206.944 21.5307 207.817 22.12C208.689 22.7093 209.358 23.548 209.823 24.636L207.562 25.503C207.188 24.857 206.746 24.3867 206.236 24.092C205.737 23.786 205.148 23.633 204.468 23.633C203.822 23.633 203.244 23.786 202.734 24.092C202.235 24.3867 201.838 24.8003 201.544 25.333C201.26 25.8657 201.119 26.4947 201.119 27.22C201.119 27.934 201.26 28.563 201.544 29.107C201.838 29.6397 202.235 30.0533 202.734 30.348C203.244 30.6427 203.822 30.79 204.468 30.79C205.148 30.79 205.737 30.6427 206.236 30.348C206.746 30.0533 207.188 29.583 207.562 28.937L209.823 29.804C209.358 30.892 208.689 31.7307 207.817 32.32C206.944 32.9093 205.828 33.204 204.468 33.204ZM213.586 33V22.596H216.085V33H213.586ZM210.152 23.82V21.423H219.587V23.82H210.152ZM224.643 33.289C223.974 33.289 223.345 33.1927 222.756 33C222.178 32.796 221.657 32.4957 221.192 32.099C220.739 31.691 220.353 31.1697 220.036 30.535L221.974 29.328C222.303 29.872 222.705 30.2857 223.181 30.569C223.657 30.8523 224.19 30.994 224.779 30.994C225.289 30.994 225.674 30.8863 225.935 30.671C226.196 30.4557 226.326 30.1723 226.326 29.821C226.326 29.5943 226.264 29.4017 226.139 29.243C226.026 29.073 225.816 28.9143 225.51 28.767C225.204 28.6197 224.762 28.478 224.184 28.342C223.243 28.1153 222.495 27.832 221.94 27.492C221.396 27.152 221.011 26.7497 220.784 26.285C220.557 25.809 220.444 25.282 220.444 24.704C220.444 24.024 220.608 23.4233 220.937 22.902C221.277 22.3693 221.759 21.95 222.382 21.644C223.005 21.338 223.748 21.185 224.609 21.185C225.584 21.185 226.405 21.3777 227.074 21.763C227.754 22.1483 228.298 22.6527 228.706 23.276L226.768 24.619C226.473 24.2337 226.116 23.956 225.697 23.786C225.289 23.616 224.881 23.531 224.473 23.531C223.986 23.531 223.606 23.6273 223.334 23.82C223.073 24.0013 222.943 24.262 222.943 24.602C222.943 24.9193 223.079 25.1857 223.351 25.401C223.623 25.605 224.156 25.7977 224.949 25.979C225.901 26.2057 226.666 26.4833 227.244 26.812C227.822 27.1407 228.241 27.543 228.502 28.019C228.763 28.495 228.893 29.0673 228.893 29.736C228.893 30.416 228.717 31.0223 228.366 31.555C228.026 32.0877 227.539 32.5127 226.904 32.83C226.269 33.136 225.516 33.289 224.643 33.289ZM244.365 27.866H238.704C238.171 27.866 237.74 27.9963 237.412 28.257C237.094 28.5063 236.936 28.869 236.936 29.345C236.936 29.7983 237.094 30.1497 237.412 30.399C237.74 30.6483 238.165 30.773 238.687 30.773C239.321 30.773 239.769 30.5747 240.03 30.178C240.29 29.7813 240.421 29.2147 240.421 28.478V26.931H242.92V28.631C242.92 29.5717 242.778 30.3423 242.495 30.943C242.223 31.5437 241.866 32.0083 241.424 32.337C240.993 32.6657 240.534 32.8923 240.047 33.017C239.559 33.1417 239.112 33.204 238.704 33.204C237.786 33.204 237.009 33.0397 236.375 32.711C235.74 32.371 235.253 31.9177 234.913 31.351C234.584 30.773 234.42 30.144 234.42 29.464C234.42 28.8633 234.601 28.3023 234.964 27.781C235.338 27.2483 235.853 26.8233 236.511 26.506C237.179 26.1773 237.956 26.013 238.84 26.013L238.602 27.271C237.502 27.271 236.624 26.982 235.967 26.404C235.309 25.826 234.981 25.0667 234.981 24.126C234.981 23.5933 235.117 23.0777 235.389 22.579C235.661 22.0803 236.063 21.6667 236.596 21.338C237.14 20.998 237.814 20.828 238.619 20.828C238.947 20.828 239.293 20.8677 239.656 20.947C240.03 21.015 240.421 21.168 240.829 21.406C241.237 21.6327 241.645 21.9783 242.053 22.443L240.302 24.007C240.007 23.7123 239.735 23.514 239.486 23.412C239.236 23.2987 238.976 23.242 238.704 23.242C238.318 23.242 238.012 23.3553 237.786 23.582C237.559 23.7973 237.446 24.0693 237.446 24.398C237.446 24.7607 237.593 25.0667 237.888 25.316C238.194 25.554 238.63 25.673 239.197 25.673H244.365V27.866ZM251.85 28.614V26.234H256.542V28.614H251.85ZM252.581 33H250.099V21.423H257.392V23.82H251.714L252.581 22.783V33ZM261.297 33H258.815V21.423H261.297V33ZM270.369 33H263.331V21.423H265.813V31.538L265.184 30.603H270.369V33ZM273.414 28.376V26.013H278.174V28.376H273.414ZM273.363 23.786L274.23 22.783V31.64L273.278 30.637H279.109V33H271.748V21.423H279.109V23.786H273.363ZM284.774 33.289C284.105 33.289 283.476 33.1927 282.887 33C282.309 32.796 281.787 32.4957 281.323 32.099C280.869 31.691 280.484 31.1697 280.167 30.535L282.105 29.328C282.433 29.872 282.836 30.2857 283.312 30.569C283.788 30.8523 284.32 30.994 284.91 30.994C285.42 30.994 285.805 30.8863 286.066 30.671C286.326 30.4557 286.457 30.1723 286.457 29.821C286.457 29.5943 286.394 29.4017 286.27 29.243C286.156 29.073 285.947 28.9143 285.641 28.767C285.335 28.6197 284.893 28.478 284.315 28.342C283.374 28.1153 282.626 27.832 282.071 27.492C281.527 27.152 281.141 26.7497 280.915 26.285C280.688 25.809 280.575 25.282 280.575 24.704C280.575 24.024 280.739 23.4233 281.068 22.902C281.408 22.3693 281.889 21.95 282.513 21.644C283.136 21.338 283.878 21.185 284.74 21.185C285.714 21.185 286.536 21.3777 287.205 21.763C287.885 22.1483 288.429 22.6527 288.837 23.276L286.899 24.619C286.604 24.2337 286.247 23.956 285.828 23.786C285.42 23.616 285.012 23.531 284.604 23.531C284.116 23.531 283.737 23.6273 283.465 23.82C283.204 24.0013 283.074 24.262 283.074 24.602C283.074 24.9193 283.21 25.1857 283.482 25.401C283.754 25.605 284.286 25.7977 285.08 25.979C286.032 26.2057 286.797 26.4833 287.375 26.812C287.953 27.1407 288.372 27.543 288.633 28.019C288.893 28.495 289.024 29.0673 289.024 29.736C289.024 30.416 288.848 31.0223 288.497 31.555C288.157 32.0877 287.669 32.5127 287.035 32.83C286.4 33.136 285.646 33.289 284.774 33.289Z" fill="white"/>
<path d="M180.96 48V37.104H184.768C185.899 37.104 186.869 37.3227 187.68 37.76C188.501 38.1867 189.131 38.8107 189.568 39.632C190.016 40.4427 190.24 41.4187 190.24 42.56C190.24 43.712 190.016 44.6933 189.568 45.504C189.131 46.3147 188.501 46.9333 187.68 47.36C186.859 47.7867 185.883 48 184.752 48H180.96ZM183.296 46.624L182.368 45.744H184.592C185.243 45.744 185.808 45.6373 186.288 45.424C186.779 45.2 187.157 44.8533 187.424 44.384C187.701 43.9147 187.84 43.3067 187.84 42.56C187.84 41.824 187.707 41.2213 187.44 40.752C187.173 40.2827 186.795 39.936 186.304 39.712C185.824 39.4773 185.259 39.36 184.608 39.36H182.256L183.296 38.672V46.624ZM193.874 48H191.538V37.104H193.874V48ZM200.7 48.192C199.601 48.192 198.631 47.952 197.788 47.472C196.956 46.992 196.311 46.336 195.852 45.504C195.393 44.6613 195.164 43.7067 195.164 42.64C195.164 41.7973 195.297 41.0293 195.564 40.336C195.841 39.632 196.225 39.0293 196.716 38.528C197.207 38.016 197.788 37.6213 198.46 37.344C199.143 37.0667 199.889 36.928 200.7 36.928C201.948 36.928 202.977 37.1947 203.788 37.728C204.609 38.2507 205.244 39.0027 205.692 39.984L203.564 40.832C203.212 40.256 202.801 39.84 202.332 39.584C201.863 39.3173 201.319 39.184 200.7 39.184C200.092 39.184 199.548 39.328 199.068 39.616C198.599 39.8933 198.225 40.288 197.948 40.8C197.681 41.312 197.548 41.9253 197.548 42.64C197.548 43.3013 197.681 43.888 197.948 44.4C198.225 44.9013 198.599 45.296 199.068 45.584C199.548 45.8613 200.092 46 200.7 46C201.265 46 201.767 45.8933 202.204 45.68C202.641 45.4667 202.993 45.1627 203.26 44.768C203.527 44.3627 203.676 43.8933 203.708 43.36L204.38 44.176H200.524V42.08H205.836C205.879 42.2507 205.911 42.432 205.932 42.624C205.953 42.816 205.964 43.008 205.964 43.2C205.964 43.9467 205.82 44.6293 205.532 45.248C205.255 45.856 204.871 46.384 204.38 46.832C203.9 47.2693 203.345 47.6053 202.716 47.84C202.087 48.0747 201.415 48.192 200.7 48.192ZM209.562 48H207.226V37.104H209.562V48ZM213.892 48V38.208H216.244V48H213.892ZM210.66 39.36V37.104H219.54V39.36H210.66ZM220.81 43.808H225.93V45.968H220.81V43.808ZM218.426 48L222.298 37.104H224.874L228.554 48H226.186L223.21 38.704H223.978L220.778 48H218.426ZM236.178 48H229.554V37.104H231.89V46.624L231.298 45.744H236.178V48ZM245.392 48.272C244.763 48.272 244.171 48.1813 243.616 48C243.072 47.808 242.581 47.5253 242.144 47.152C241.717 46.768 241.355 46.2773 241.056 45.68L242.88 44.544C243.189 45.056 243.568 45.4453 244.016 45.712C244.464 45.9787 244.965 46.112 245.52 46.112C246 46.112 246.363 46.0107 246.608 45.808C246.853 45.6053 246.976 45.3387 246.976 45.008C246.976 44.7947 246.917 44.6133 246.8 44.464C246.693 44.304 246.496 44.1547 246.208 44.016C245.92 43.8773 245.504 43.744 244.96 43.616C244.075 43.4027 243.371 43.136 242.848 42.816C242.336 42.496 241.973 42.1173 241.76 41.68C241.547 41.232 241.44 40.736 241.44 40.192C241.44 39.552 241.595 38.9867 241.904 38.496C242.224 37.9947 242.677 37.6 243.264 37.312C243.851 37.024 244.549 36.88 245.36 36.88C246.277 36.88 247.051 37.0613 247.68 37.424C248.32 37.7867 248.832 38.2613 249.216 38.848L247.392 40.112C247.115 39.7493 246.779 39.488 246.384 39.328C246 39.168 245.616 39.088 245.232 39.088C244.773 39.088 244.416 39.1787 244.16 39.36C243.915 39.5307 243.792 39.776 243.792 40.096C243.792 40.3947 243.92 40.6453 244.176 40.848C244.432 41.04 244.933 41.2213 245.68 41.392C246.576 41.6053 247.296 41.8667 247.84 42.176C248.384 42.4853 248.779 42.864 249.024 43.312C249.269 43.76 249.392 44.2987 249.392 44.928C249.392 45.568 249.227 46.1387 248.896 46.64C248.576 47.1413 248.117 47.5413 247.52 47.84C246.923 48.128 246.213 48.272 245.392 48.272ZM252.309 43.648V41.424H256.789V43.648H252.309ZM252.261 39.328L253.077 38.384V46.72L252.181 45.776H257.669V48H250.741V37.104H257.669V39.328H252.261ZM259.304 48V37.104H263.32C264.098 37.104 264.792 37.2587 265.4 37.568C266.018 37.8773 266.504 38.3147 266.856 38.88C267.218 39.4453 267.4 40.1173 267.4 40.896C267.4 41.6853 267.218 42.3627 266.856 42.928C266.504 43.4933 266.018 43.9307 265.4 44.24C264.792 44.5387 264.098 44.688 263.32 44.688H261.128V42.432H263.144C263.73 42.432 264.184 42.304 264.504 42.048C264.834 41.7813 265 41.3973 265 40.896C265 40.3947 264.834 40.016 264.504 39.76C264.184 39.4933 263.73 39.36 263.144 39.36H261.112L261.64 38.832V48H259.304ZM264.952 48L262.632 43.568H265.192L267.512 48H264.952ZM271.464 48L267.768 37.104H270.152L273.272 46.4H272.36L275.496 37.104H277.848L274.136 48H271.464ZM281.234 48H278.898V37.104H281.234V48ZM288.06 48.192C286.929 48.192 285.948 47.952 285.116 47.472C284.294 46.992 283.654 46.3307 283.196 45.488C282.748 44.6347 282.524 43.6587 282.524 42.56C282.524 41.7387 282.657 40.9867 282.924 40.304C283.201 39.6107 283.585 39.0133 284.076 38.512C284.566 38 285.148 37.6107 285.82 37.344C286.502 37.0667 287.249 36.928 288.06 36.928C289.34 36.928 290.39 37.2053 291.212 37.76C292.033 38.3147 292.662 39.104 293.1 40.128L290.972 40.944C290.62 40.336 290.204 39.8933 289.724 39.616C289.254 39.328 288.7 39.184 288.06 39.184C287.452 39.184 286.908 39.328 286.428 39.616C285.958 39.8933 285.585 40.2827 285.308 40.784C285.041 41.2853 284.908 41.8773 284.908 42.56C284.908 43.232 285.041 43.824 285.308 44.336C285.585 44.8373 285.958 45.2267 286.428 45.504C286.908 45.7813 287.452 45.92 288.06 45.92C288.7 45.92 289.254 45.7813 289.724 45.504C290.204 45.2267 290.62 44.784 290.972 44.176L293.1 44.992C292.662 46.016 292.033 46.8053 291.212 47.36C290.39 47.9147 289.34 48.192 288.06 48.192ZM295.856 43.648V41.424H300.336V43.648H295.856ZM295.808 39.328L296.624 38.384V46.72L295.728 45.776H301.216V48H294.288V37.104H301.216V39.328H295.808ZM306.548 48.272C305.919 48.272 305.327 48.1813 304.772 48C304.228 47.808 303.737 47.5253 303.3 47.152C302.873 46.768 302.511 46.2773 302.212 45.68L304.036 44.544C304.345 45.056 304.724 45.4453 305.172 45.712C305.62 45.9787 306.121 46.112 306.676 46.112C307.156 46.112 307.519 46.0107 307.764 45.808C308.009 45.6053 308.132 45.3387 308.132 45.008C308.132 44.7947 308.073 44.6133 307.956 44.464C307.849 44.304 307.652 44.1547 307.364 44.016C307.076 43.8773 306.66 43.744 306.116 43.616C305.231 43.4027 304.527 43.136 304.004 42.816C303.492 42.496 303.129 42.1173 302.916 41.68C302.703 41.232 302.596 40.736 302.596 40.192C302.596 39.552 302.751 38.9867 303.06 38.496C303.38 37.9947 303.833 37.6 304.42 37.312C305.007 37.024 305.705 36.88 306.516 36.88C307.433 36.88 308.207 37.0613 308.836 37.424C309.476 37.7867 309.988 38.2613 310.372 38.848L308.548 40.112C308.271 39.7493 307.935 39.488 307.54 39.328C307.156 39.168 306.772 39.088 306.388 39.088C305.929 39.088 305.572 39.1787 305.316 39.36C305.071 39.5307 304.948 39.776 304.948 40.096C304.948 40.3947 305.076 40.6453 305.332 40.848C305.588 41.04 306.089 41.2213 306.836 41.392C307.732 41.6053 308.452 41.8667 308.996 42.176C309.54 42.4853 309.935 42.864 310.18 43.312C310.425 43.76 310.548 44.2987 310.548 44.928C310.548 45.568 310.383 46.1387 310.052 46.64C309.732 47.1413 309.273 47.5413 308.676 47.84C308.079 48.128 307.369 48.272 306.548 48.272Z" fill="#1DB3C4"/>
<rect x="132" y="17" width="17" height="18" fill="white"/>
<rect x="132" y="35" width="17" height="17" fill="#1DB3C4"/>
<rect x="149" width="17" height="17" fill="white"/>
</svg>
